<?xml version="1.0" standalone="no"?>
<!DOCTYPE svg PUBLIC "-//W3C//DTD SVG 20010904//EN"
 "http://www.w3.org/TR/2001/REC-SVG-20010904/DTD/svg10.dtd">
<svg version="1.0" xmlns="http://www.w3.org/2000/svg"
 width="700.000000pt" height="700.000000pt" viewBox="0 0 700.000000 700.000000"
 preserveAspectRatio="xMidYMid meet">
<metadata>
Created by potrace 1.11, written by Peter Selinger 2001-2013
</metadata>
<g transform="translate(0.000000,700.000000) scale(0.100000,-0.100000)"
fill="#000000" stroke="none">
<path d="M2213 6410 c-129 -19 -250 -109 -307 -230 l-31 -65 -3 -1247 -2
-1248 -120 0 -120 0 0 135 0 135 -34 38 -34 37 -739 0 c-695 0 -740 -1 -765
-18 -62 -42 -58 64 -58 -1614 0 -1435 1 -1530 18 -1563 36 -73 2 -70 805 -70
788 0 760 -2 792 60 9 18 15 56 15 100 l0 70 152 0 151 0 171 -168 c150 -148
176 -169 211 -175 66 -11 2642 -8 2720 3 44 7 100 24 150 49 316 150 394 562
156 823 l-50 55 49 53 c187 203 187 507 0 710 l-49 53 56 61 c61 66 118 174
129 242 l6 44 326 0 326 0 346 -344 c308 -306 349 -344 383 -349 48 -7 98 15
121 53 15 26 16 188 16 2022 0 1770 -2 2000 -16 2053 -40 155 -166 269 -324
295 -76 12 -4364 12 -4447 0z m4450 -244 c42 -17 83 -66 97 -114 12 -44 15
-3662 2 -3662 -4 0 -120 113 -257 251 -138 138 -264 257 -282 265 -26 11 -107
14 -402 14 l-370 0 -33 62 c-18 34 -55 85 -81 115 l-49 53 40 41 c54 53 96
119 123 188 31 78 38 236 14 317 -51 178 -188 316 -364 368 -48 14 -145 16
-772 16 l-717 0 -5 583 c-3 516 -6 589 -21 642 -32 110 -76 185 -156 266 -114
115 -231 163 -400 162 -226 -2 -419 -115 -512 -303 -68 -135 -68 -138 -68
-692 l0 -498 -175 -263 -175 -262 0 1170 0 1170 23 39 c14 25 39 48 66 63 l44
23 2199 0 c1834 0 2204 -2 2231 -14z m-3565 -666 c148 -35 266 -159 278 -294
3 -28 6 -325 7 -661 2 -570 3 -612 20 -637 41 -60 13 -58 846 -58 744 0 761 0
816 -21 73 -27 137 -92 165 -167 57 -151 -23 -328 -172 -378 -43 -14 -113 -16
-568 -15 l-520 2 0 -121 0 -121 520 2 c455 1 525 -1 568 -15 149 -50 229 -227
172 -378 -28 -75 -92 -140 -165 -167 -54 -20 -75 -21 -575 -21 l-520 0 0 -115
0 -114 528 -3 527 -3 53 -24 c102 -46 172 -154 172 -266 0 -112 -70 -220 -172
-266 l-53 -24 -527 -3 -528 -3 0 -114 0 -115 520 0 c500 0 521 -1 575 -21 73
-27 137 -92 165 -167 43 -114 9 -249 -84 -328 -80 -69 9 -65 -1452 -64 l-1319
0 -165 165 c-119 119 -175 168 -200 175 -19 6 -113 10 -207 10 l-173 0 0 1105
0 1105 238 0 c163 1 245 5 263 13 19 8 105 130 283 397 l256 385 0 506 c0 554
1 569 60 654 58 84 128 134 222 159 64 18 90 19 146 6z m-1698 -3165 l0 -1395
-580 0 -580 0 0 1395 0 1395 580 0 580 0 0 -1395z"/>
<path d="M3730 5715 l0 -115 935 0 935 0 0 115 0 115 -935 0 -935 0 0 -115z"/>
<path d="M5950 5715 l0 -115 235 0 235 0 0 76 c0 60 -5 85 -22 115 l-22 39
-213 0 -213 0 0 -115z"/>
<path d="M3730 5015 l0 -115 470 0 470 0 0 115 0 115 -470 0 -470 0 0 -115z"/>
<path d="M4900 5015 l0 -115 760 0 760 0 0 115 0 115 -760 0 -760 0 0 -115z"/>
<path d="M5600 4315 l0 -115 410 0 410 0 0 115 0 115 -410 0 -410 0 0 -115z"/>
</g>
</svg>
